<svg width="135" height="59" viewBox="0 0 135 59" fill="none" xmlns="http://www.w3.org/2000/svg">
<path d="M86.216 30.752H81.152V44H76.448V30.752H71.384V26.768H86.216V30.752ZM88.7454 26.768H101.297V30.752H93.3534V33.32H99.9294V37.208H93.3534V40.016H101.297V44H88.7454V26.768ZM102.77 41.408L105.338 38C106.802 39.656 108.746 40.424 110.498 40.424C111.938 40.424 112.898 39.896 112.898 38.912C112.898 37.808 111.674 37.664 109.034 37.136C106.514 36.632 103.754 35.696 103.754 32.192C103.754 28.664 106.802 26.48 110.618 26.48C113.642 26.48 116.018 27.656 117.386 29.144L114.842 32.312C113.714 31.064 112.202 30.344 110.498 30.344C109.226 30.344 108.362 30.824 108.362 31.712C108.362 32.696 109.418 32.864 111.506 33.296C114.194 33.848 117.554 34.592 117.554 38.432C117.554 42.152 114.29 44.288 110.306 44.288C107.498 44.288 104.21 43.184 102.77 41.408ZM133.815 30.752H128.751V44H124.047V30.752H118.983V26.768H133.815V30.752Z" fill="black"/>
<g clip-path="url(#clip0_1_200)">
<path d="M29.5 4.91669L4.91663 17.2084L29.5 29.5L54.0833 17.2084L29.5 4.91669Z" stroke="black" stroke-width="4" stroke-linecap="round" stroke-linejoin="round"/>
<path d="M4.91663 41.7917L29.5 54.0834L54.0833 41.7917" stroke="black" stroke-width="4" stroke-linecap="round" stroke-linejoin="round"/>
<path d="M4.91663 29.5L29.5 41.7917L54.0833 29.5" stroke="black" stroke-width="12" stroke-linecap="round" stroke-linejoin="round"/>
</g>
<defs>
<clipPath id="clip0_1_200">
<rect width="59" height="59" fill="white"/>
</clipPath>
</defs>
</svg>
