<svg width="25" height="25" viewBox="0 0 25 25" fill="none" xmlns="http://www.w3.org/2000/svg">
<rect x="0.25" y="0.25" width="24.5" height="24.5" stroke="black" stroke-width="0.5"/>
<path d="M23.9583 3.12498C22.9608 3.8286 21.8563 4.36676 20.6875 4.71873C20.0601 3.99738 19.2263 3.48611 18.299 3.25407C17.3716 3.02202 16.3953 3.08039 15.5021 3.42128C14.609 3.76218 13.8421 4.36914 13.3051 5.1601C12.7682 5.95105 12.4871 6.88783 12.5 7.84373V8.88539C10.6694 8.93286 8.85545 8.52687 7.21976 7.70357C5.58407 6.88027 4.17737 5.66522 3.12496 4.16664C3.12496 4.16664 -1.04171 13.5416 8.33329 17.7083C6.18801 19.1645 3.63241 19.8947 1.04163 19.7916C10.4166 25 21.875 19.7916 21.875 7.81248C21.874 7.52232 21.8461 7.23289 21.7916 6.94789C22.8548 5.89945 23.605 4.57572 23.9583 3.12498Z" stroke="white" stroke-width="2" stroke-linecap="round" stroke-linejoin="round"/>
</svg>
