<svg width="25" height="25" viewBox="0 0 25 25" fill="none" xmlns="http://www.w3.org/2000/svg">
<rect x="0.25" y="0.25" width="24.5" height="24.5" stroke="black" stroke-width="0.5"/>
<path d="M23.4791 6.68746C23.3554 6.19309 23.1034 5.74014 22.7485 5.37434C22.3937 5.00854 21.9486 4.74286 21.4583 4.60413C19.6666 4.16663 12.4999 4.16663 12.4999 4.16663C12.4999 4.16663 5.33328 4.16663 3.54161 4.64579C3.05124 4.78453 2.60617 5.05021 2.25135 5.41601C1.89652 5.78181 1.64452 6.23476 1.52078 6.72913C1.19288 8.54741 1.03248 10.3919 1.04161 12.2395C1.02992 14.101 1.19033 15.9596 1.52078 17.7916C1.65719 18.2706 1.91485 18.7064 2.26884 19.0567C2.62284 19.4071 3.06122 19.6602 3.54161 19.7916C5.33328 20.2708 12.4999 20.2708 12.4999 20.2708C12.4999 20.2708 19.6666 20.2708 21.4583 19.7916C21.9486 19.6529 22.3937 19.3872 22.7485 19.0214C23.1034 18.6556 23.3554 18.2027 23.4791 17.7083C23.8045 15.9037 23.9649 14.0732 23.9583 12.2395C23.97 10.378 23.8096 8.51944 23.4791 6.68746Z" stroke="white" stroke-width="2" stroke-linecap="round" stroke-linejoin="round"/>
<path d="M10.1562 15.6459L16.1458 12.2396L10.1562 8.83337V15.6459Z" stroke="white" stroke-width="2" stroke-linecap="round" stroke-linejoin="round"/>
</svg>
